<?xml version="1.0" standalone="no"?>
<!DOCTYPE svg PUBLIC "-//W3C//DTD SVG 20010904//EN"
 "http://www.w3.org/TR/2001/REC-SVG-20010904/DTD/svg10.dtd">
<svg version="1.0" xmlns="http://www.w3.org/2000/svg"
 width="900.000000pt" height="639.000000pt" viewBox="0 0 900.000000 639.000000"
 preserveAspectRatio="xMidYMid meet">
<metadata>
Created by potrace 1.10, written by Peter Selinger 2001-2011
</metadata>
<g transform="translate(0.000000,639.000000) scale(0.100000,-0.100000)"
fill="#060606" stroke="none">
<path d="M4015 5650 c-214 -34 -220 -35 -332 -86 -143 -66 -351 -207 -426
-291 -24 -26 -74 -82 -111 -123 -37 -41 -100 -122 -139 -179 -40 -56 -87 -123
-105 -148 -18 -24 -41 -65 -51 -91 -19 -47 -123 -271 -141 -304 -6 -10 -10
-23 -10 -29 0 -6 -6 -25 -14 -42 -35 -76 -49 -115 -56 -152 -5 -22 -20 -80
-35 -130 -15 -49 -33 -115 -40 -145 -7 -30 -22 -91 -34 -135 -29 -115 -60
-381 -61 -525 0 -149 60 -365 132 -475 60 -91 118 -143 194 -174 167 -66 189
-78 257 -150 55 -59 71 -84 118 -196 47 -113 61 -135 110 -182 158 -152 467
-216 814 -170 66 9 136 19 155 21 45 6 134 26 308 71 208 53 372 110 504 173
59 29 111 52 117 52 5 0 60 30 123 67 96 56 148 90 312 203 11 7 46 37 77 65
31 27 74 64 95 81 22 17 48 48 59 67 l19 37 -35 37 c-20 21 -43 52 -51 68 -8
17 -21 44 -29 60 -11 22 -36 40 -96 70 -95 46 -125 72 -153 131 -26 52 -31 57
-100 84 -79 31 -143 82 -195 156 -78 113 -79 116 -80 249 0 66 4 136 8 157 8
39 90 170 128 204 40 36 137 94 158 94 30 0 51 28 51 68 0 49 58 170 100 209
18 17 31 37 28 44 -7 18 -185 107 -318 159 -58 23 -113 49 -122 58 -10 10 -28
53 -42 97 -49 165 -242 498 -365 630 -138 149 -360 278 -521 304 -105 16 -152
19 -205 11z m-703 -1292 c98 -125 171 -281 252 -543 16 -49 36 -110 46 -135
29 -75 42 -112 59 -173 15 -55 15 -59 -1 -71 -25 -18 -174 -28 -223 -15 -46
13 -73 35 -122 101 -19 27 -48 63 -64 81 -16 18 -41 51 -56 74 -16 23 -56 78
-91 123 -35 44 -76 105 -92 135 -28 54 -29 56 -14 104 46 156 186 361 247 361
18 0 35 -12 59 -42z m348 -1197 c0 -14 -43 -63 -145 -166 -127 -127 -138 -135
-199 -135 -46 0 -53 3 -69 29 -22 37 -22 73 1 99 15 19 167 92 190 92 5 0 47
20 93 44 81 43 129 56 129 37z m85 -51 c-4 -11 -27 -57 -53 -102 -25 -45 -60
-124 -77 -175 -38 -110 -57 -141 -91 -149 -42 -11 -96 8 -113 37 -13 23 -13
33 -2 69 10 35 42 73 160 192 137 138 192 178 176 128z m367 -10 c49 -17 111
-39 136 -49 26 -10 74 -26 107 -36 33 -10 74 -24 90 -30 17 -7 59 -23 95 -36
61 -21 149 -58 230 -97 56 -26 147 -90 164 -114 27 -38 19 -60 -44 -119 -83
-77 -261 -169 -334 -172 -47 -2 -57 2 -131 55 -44 31 -105 78 -137 105 -31 26
-82 64 -115 85 -75 47 -179 141 -200 181 -13 25 -15 50 -10 124 7 99 18 133
43 133 9 0 57 -14 106 -30z"/>
<path d="M6095 5275 c-16 -8 -45 -14 -62 -15 -34 0 -70 -14 -213 -83 -92 -45
-152 -83 -215 -136 -57 -50 -210 -205 -242 -248 l-27 -35 27 -24 c16 -13 34
-24 41 -24 8 0 19 -7 26 -15 7 -8 24 -15 37 -15 14 0 37 -6 51 -14 29 -15 76
-28 187 -53 84 -18 376 -29 414 -15 14 6 60 20 101 32 95 28 85 25 150 61 51
29 77 46 170 110 68 46 280 282 280 311 0 9 -114 68 -132 68 -6 0 -30 8 -52
19 -52 24 -111 40 -271 72 -88 18 -236 21 -270 4z"/>
<path d="M563 1144 c-3 -8 -2 -31 2 -52 4 -20 7 -118 5 -217 -1 -99 -1 -191
-1 -205 2 -24 7 -102 10 -127 0 -7 8 -13 17 -13 9 0 18 -9 21 -20 6 -24 32
-33 76 -25 26 5 36 3 40 -9 6 -14 43 -16 317 -16 l310 0 -4 23 -3 22 -224 2
c-292 2 -400 7 -426 22 -18 9 -24 8 -31 -5 -6 -11 -11 -13 -16 -5 -4 6 -16 11
-27 11 -26 0 -45 41 -30 66 6 11 11 13 11 7 0 -7 5 -13 10 -13 6 0 10 101 10
283 l0 284 -31 1 c-18 0 -32 -5 -36 -14z"/>
<path d="M4111 1151 c-11 -7 -11 -15 -2 -41 14 -41 14 -87 1 -95 -16 -10 -11
-53 8 -64 16 -10 16 -12 0 -25 -19 -14 -24 -36 -8 -36 6 0 9 -56 8 -144 -1
-95 -6 -144 -12 -143 -14 2 -8 -46 6 -54 6 -4 1 -10 -11 -14 -11 -3 -25 -3
-31 0 -5 3 -10 -1 -10 -9 0 -12 -10 -15 -42 -14 -24 1 -118 1 -210 0 -144 -2
-167 -4 -162 -17 8 -20 -16 -19 -31 2 -8 11 -26 16 -56 16 -89 -2 -111 42
-108 214 2 119 -3 152 -20 124 -6 -10 -11 -6 -19 15 -9 24 -11 13 -11 -63 -1
-82 9 -117 22 -80 2 6 4 -13 4 -43 0 -30 -2 -43 -4 -27 -8 54 -23 25 -23 -44
0 -60 2 -70 16 -65 9 3 12 2 9 -5 -4 -6 3 -13 15 -16 16 -4 18 -8 8 -14 -19
-13 9 -30 45 -27 15 2 31 -3 35 -9 6 -10 65 -13 226 -14 119 -1 220 2 224 5 3
4 0 12 -8 17 -10 7 -1 8 31 3 44 -6 99 9 85 23 -3 4 4 11 17 17 12 6 26 21 32
34 5 12 13 22 17 22 5 0 8 45 8 100 0 60 -4 100 -10 100 -5 0 -10 9 -10 20 0
11 5 20 10 20 13 0 13 37 0 45 -6 4 -4 12 5 22 9 9 14 22 11 30 -3 8 -6 30 -6
49 0 20 -4 33 -9 29 -6 -3 -10 16 -9 45 0 27 4 50 9 50 16 0 10 58 -7 64 -19
7 -16 8 -33 -3z"/>
<path d="M6292 1148 c-21 -21 -13 -28 28 -28 34 0 40 3 40 21 0 17 -3 19 -14
10 -10 -8 -16 -9 -21 -1 -8 13 -18 13 -33 -2z"/>
<path d="M8380 1150 c0 -5 -6 -7 -14 -4 -12 5 -14 -7 -14 -60 0 -47 4 -64 12
-59 6 4 21 6 34 4 18 -2 22 2 22 23 0 14 -4 26 -9 26 -5 0 -4 14 2 30 10 25 9
33 -3 40 -19 12 -30 12 -30 0z"/>
<path d="M4843 1142 c-18 -2 -33 -9 -33 -15 0 -8 -13 -11 -39 -9 -34 3 -41 0
-61 -28 -19 -27 -23 -45 -24 -136 -2 -107 -1 -113 42 -148 26 -23 30 -5 4 21
-15 15 -19 36 -20 111 -1 59 2 91 8 87 6 -3 10 4 10 17 0 43 14 51 80 49 52
-1 61 1 57 14 -5 13 5 15 68 15 40 0 77 5 80 10 3 6 -4 11 -17 12 -44 3 -123
3 -155 0z"/>
<path d="M5058 1143 c-35 -5 -37 -22 -3 -24 14 -1 31 -2 38 -3 14 -1 17 27 2
29 -5 1 -22 0 -37 -2z"/>
<path d="M5780 1139 c-131 -10 -177 -35 -163 -89 4 -15 1 -25 -9 -31 -13 -7
-15 -25 -11 -101 2 -51 8 -94 14 -96 12 -5 12 -42 -1 -42 -6 0 -10 -27 -9 -62
1 -47 3 -57 9 -38 7 22 8 21 9 -12 1 -21 -3 -38 -9 -38 -5 0 -10 -14 -10 -31
0 -17 4 -28 10 -24 6 3 10 -3 10 -14 0 -12 -4 -21 -9 -21 -25 0 -22 -74 4 -84
7 -2 22 -2 34 1 17 4 19 11 14 37 -3 17 -10 36 -15 43 -5 7 -5 14 1 17 13 8
13 364 0 372 -14 8 -11 58 6 90 20 39 20 61 1 44 -12 -9 -15 -8 -13 9 1 21 32
33 72 28 11 -1 19 3 18 8 -1 11 27 14 120 14 42 0 57 4 57 14 0 16 -2 16 -130
6z"/>
<path d="M6135 1133 c-52 -11 -65 -25 -63 -67 1 -23 -4 -42 -10 -44 -15 -5
-16 -38 -2 -47 7 -4 6 -13 -1 -27 -8 -14 -8 -23 0 -31 14 -14 14 -44 0 -49 -7
-2 -10 -53 -10 -143 0 -90 3 -141 10 -143 15 -5 13 -33 -4 -56 -22 -29 -19
-63 7 -69 12 -3 24 -4 28 -2 3 2 5 102 3 222 -4 235 0 261 45 280 24 11 162
12 201 2 8 -2 17 4 19 15 4 17 -3 18 -117 15 -114 -4 -121 -3 -136 17 -13 20
-13 22 6 27 17 5 20 12 17 31 -4 18 0 26 15 30 10 2 16 9 13 15 -11 17 15 24
40 10 21 -11 27 -10 41 4 16 16 14 17 -32 16 -28 -1 -59 -3 -70 -6z"/>
<path d="M1762 992 c-93 -2 -113 -5 -108 -17 3 -9 -2 -14 -17 -13 -61 2 -67
-1 -67 -34 0 -24 -3 -29 -10 -18 -24 37 -39 -43 -40 -202 0 -76 5 -137 12
-153 11 -25 23 -32 30 -17 2 4 11 0 21 -10 9 -10 13 -18 7 -18 -5 0 -10 -4
-10 -10 0 -5 12 -10 28 -10 15 -1 38 -7 52 -15 20 -11 73 -14 243 -15 196 0
246 6 205 24 -7 3 7 3 32 1 53 -5 85 9 60 25 -12 8 -11 10 6 10 46 0 50 22 48
220 -1 125 -5 185 -13 188 -6 2 -11 10 -11 18 0 14 -20 18 -75 16 -22 -1 -26
1 -15 8 8 5 12 11 10 13 -7 7 -256 12 -388 9z m351 -39 c-7 -18 24 -28 41 -14
7 6 20 9 28 6 13 -5 16 -35 17 -175 1 -103 -2 -177 -8 -189 -7 -13 -8 -22 -1
-26 15 -9 12 -28 -4 -22 -8 3 -38 -1 -68 -9 -50 -14 -95 -15 -465 -12 -18 1
-30 4 -28 9 3 4 -4 10 -14 14 -11 3 -18 11 -16 18 3 7 0 19 -5 27 -8 12 -11
13 -19 1 -13 -20 -12 39 1 67 9 16 9 25 1 33 -9 9 -8 17 0 32 9 15 9 21 0 24
-16 6 -17 37 -2 65 7 14 8 23 1 30 -6 6 -7 17 -2 27 5 9 11 24 14 34 3 9 14
17 24 17 11 0 25 7 32 15 7 8 22 15 34 15 11 1 31 6 43 13 31 17 402 17 396 0z"/>
<path d="M2854 989 c-12 -19 8 -24 99 -25 74 0 100 -4 134 -22 23 -12 48 -22
55 -22 17 0 59 -45 51 -54 -12 -12 -42 -6 -52 12 -18 29 -13 -9 5 -43 12 -23
16 -61 16 -165 0 -74 -1 -140 -1 -147 -1 -8 -84 -11 -317 -12 l-315 0 -25 26
c-13 14 -24 38 -24 54 0 15 -4 30 -9 33 -5 3 -8 17 -8 31 0 13 3 22 8 20 9 -6
31 64 23 77 -3 4 16 8 41 8 25 0 58 6 73 14 21 11 75 14 253 12 124 -1 234 0
244 4 53 19 -36 26 -297 25 -247 0 -278 -2 -295 -18 -11 -9 -25 -17 -31 -17
-14 0 -62 -44 -62 -58 0 -5 7 -13 16 -16 15 -6 15 -8 -1 -26 -14 -15 -15 -23
-6 -34 7 -8 11 -25 10 -38 -4 -41 1 -58 15 -58 8 0 14 -6 13 -12 -1 -44 3 -48
48 -48 33 0 45 -4 45 -15 0 -9 9 -15 23 -15 327 -4 501 1 523 15 13 8 35 15
49 15 14 0 25 4 25 10 0 6 8 18 18 28 13 13 17 32 15 77 -1 33 -2 114 -2 180
-1 120 -1 121 -31 154 -29 31 -34 33 -78 27 -30 -4 -40 -3 -27 3 19 8 19 9 -5
14 -51 12 -210 16 -216 6z"/>
<path d="M6677 992 c-39 -2 -60 -8 -64 -18 -3 -9 -19 -14 -43 -14 -33 0 -41
-5 -58 -32 -17 -29 -19 -51 -18 -178 1 -110 4 -144 14 -142 15 3 16 -30 0 -46
-8 -8 -8 -12 -1 -12 6 0 10 -8 9 -17 0 -11 6 -18 16 -17 10 1 14 -4 11 -12 -3
-9 2 -14 16 -14 12 0 38 -7 59 -15 39 -17 234 -26 248 -12 5 4 3 16 -2 25 -9
14 -29 18 -100 20 -49 1 -102 7 -118 14 -23 9 -31 9 -34 0 -5 -17 -32 -15 -53
4 -16 15 -16 18 -3 31 17 18 14 49 -5 45 -19 -4 -11 59 10 80 16 16 47 17 345
16 195 -1 329 2 331 8 1 5 -2 16 -7 24 -8 13 -57 16 -321 18 -282 3 -311 2
-306 -12 4 -11 1 -16 -11 -16 -10 0 -23 -5 -30 -12 -6 -6 -21 -12 -32 -13 -27
-2 -27 48 0 75 15 15 19 28 14 48 -10 39 -15 46 -25 31 -6 -10 -9 -8 -9 9 0
13 4 21 9 18 13 -8 63 42 55 55 -5 8 2 10 21 7 16 -3 47 1 69 10 52 19 397 27
390 8 -5 -14 74 -38 82 -25 9 15 33 10 54 -11 24 -24 25 -39 4 -55 -18 -12
-11 -60 7 -50 5 4 9 1 9 -4 0 -6 5 -11 10 -11 15 0 10 122 -5 143 -8 11 -28
17 -59 19 -27 1 -42 5 -34 9 9 6 9 9 -3 14 -18 7 -348 12 -442 7z"/>
<path d="M7545 992 c-32 -2 -65 -8 -72 -14 -7 -6 -23 -12 -36 -13 -12 -1 -28
-3 -34 -4 -7 0 -13 -14 -13 -31 0 -22 -4 -28 -15 -24 -13 5 -15 -19 -15 -181
0 -162 2 -186 15 -181 9 3 15 0 15 -9 0 -8 6 -15 14 -15 8 0 13 -8 12 -17 -1
-12 8 -18 33 -20 19 -2 40 -8 46 -13 14 -11 67 -13 438 -11 216 1 227 2 227
20 0 12 -9 21 -25 25 -14 4 -155 7 -313 7 -399 1 -375 -1 -411 33 -34 33 -39
46 -16 46 11 0 15 11 16 38 6 271 5 260 33 292 14 18 26 36 26 41 0 5 10 9 23
9 16 0 18 -3 8 -9 -25 -16 8 -23 46 -10 25 8 127 12 319 13 252 1 308 5 293
21 -6 5 -529 11 -614 7z"/>
<path d="M8256 985 c-10 -27 9 -36 50 -21 40 14 36 20 -18 29 -15 2 -29 -1
-32 -8z"/>
<path d="M3536 975 c-4 -11 -17 -15 -46 -13 -46 2 -48 1 -56 -40 -6 -29 -4
-32 20 -32 14 0 26 4 26 8 0 13 69 40 120 48 25 3 50 10 55 15 6 4 17 4 25 -1
8 -5 21 -5 30 0 23 12 120 10 148 -3 17 -8 31 -8 52 0 16 6 34 7 41 2 33 -21
109 -5 109 23 0 4 -117 8 -259 8 -224 0 -260 -2 -265 -15z"/>
<path d="M5705 981 c-9 -16 10 -21 77 -21 34 1 76 0 93 -2 22 -2 30 2 33 15 3
15 -7 17 -97 17 -55 0 -102 -4 -106 -9z"/>
<path d="M8414 975 c-3 -8 -2 -27 3 -42 l9 -27 19 32 19 31 103 -5 c89 -5 103
-3 103 10 0 23 -248 24 -256 1z"/>
<path d="M8357 903 c-2 -5 -5 -83 -6 -175 -2 -143 0 -168 13 -168 8 0 17 -4
20 -9 10 -15 -5 -40 -20 -34 -10 4 -14 -3 -14 -26 0 -29 3 -31 35 -31 33 0 35
2 35 34 0 19 -4 37 -9 41 -6 3 -6 18 1 37 8 22 8 36 0 48 -6 10 -7 23 -2 30 5
8 5 21 0 29 -11 21 -10 141 1 141 19 0 8 44 -17 66 -27 26 -31 28 -37 17z"/>
<path d="M5397 824 c-3 -3 -135 -6 -294 -5 -254 0 -330 -6 -313 -23 5 -4 335
-9 548 -7 97 1 122 4 122 15 0 17 -49 33 -63 20z"/>
<path d="M4689 764 c-3 -10 -4 -44 -3 -74 1 -30 2 -74 3 -97 1 -32 5 -43 17
-43 8 0 12 -5 9 -11 -14 -22 27 -49 73 -49 28 0 49 -6 56 -15 9 -13 49 -15
251 -16 398 -1 365 -3 365 26 l0 25 -287 2 c-159 0 -300 0 -314 -1 -14 -1 -32
5 -39 14 -16 19 -30 19 -30 0 0 -10 -9 -15 -27 -14 -16 0 -22 3 -15 6 17 7 15
40 -4 47 -11 4 -13 13 -9 27 6 17 4 21 -8 16 -8 -3 -18 0 -20 8 -8 18 3 56 14
49 5 -3 9 -1 9 5 0 5 -5 13 -10 16 -6 4 -8 10 -5 15 2 4 -1 25 -8 46 -11 29
-15 34 -18 18z"/>
</g>
</svg>
